<?xml version="1.0" encoding="utf-8"?>
<!-- Generator: Adobe Illustrator 27.5.0, SVG Export Plug-In . SVG Version: 6.00 Build 0)  -->
<svg version="1.1" xmlns="http://www.w3.org/2000/svg" xmlns:xlink="http://www.w3.org/1999/xlink" x="0px" y="0px"
	 viewBox="0 0 750 500" style="enable-background:new 0 0 750 500;" xml:space="preserve">
<g id="Background_complete">
	<g>
		<path style="fill:#E0E0E0;" d="M233.769,96.542H74.449c-1.171,0-2.12-0.949-2.12-2.12v-2.27c0-1.171,0.949-2.12,2.12-2.12h159.32
			c1.171,0,2.12,0.949,2.12,2.12v2.27C235.889,95.593,234.94,96.542,233.769,96.542z"/>
		<rect x="82.039" y="95.212" style="fill:#E6E6E6;" width="144.13" height="127.9"/>
		<rect x="85.829" y="98.722" style="fill:#F5F5F5;" width="136.73" height="120.95"/>
		<polygon style="fill:#FFFFFF;" points="190.469,98.722 222.559,219.412 222.559,162.702 205.619,98.722 		"/>
		<polygon style="fill:#FFFFFF;" points="179.109,98.722 211.479,219.672 216.639,219.672 184.269,98.722 		"/>
		<polygon style="fill:#FFFFFF;" points="85.829,175.042 85.829,194.372 92.379,219.672 97.549,219.672 		"/>
		<rect x="174.869" y="96.542" style="fill:#E6E6E6;" width="2.3" height="125.83"/>
		<rect x="130.239" y="96.542" style="fill:#E6E6E6;" width="2.3" height="125.83"/>
		<path style="fill:#E0E0E0;" d="M105.529,92.122c0,0-3.32,43.27-22.39,65.32c0,0,13.89,55.69,13.88,75.1l-25.81-4.76l9.3-70
			l-4.45-65.66H105.529z"/>
		<path style="fill:#E0E0E0;" d="M202.679,92.122c0,0,3.31,43.27,22.38,65.32c0,0-13.89,55.69-13.88,75.1l25.82-4.76l-9.31-70
			l4.45-65.66H202.679z"/>
	</g>
	<g>
		<g>
			<g>
				<g>
					<g>
						<g>
							<path style="fill:#E0E0E0;" d="M673.734,339.783H492.988c-3.232,0-5.862-2.63-5.862-5.862V70.647
								c0-3.232,2.63-5.862,5.862-5.862h180.746c3.232,0,5.862,2.629,5.862,5.862v263.273
								C679.596,337.153,676.966,339.783,673.734,339.783z M492.988,65.035c-3.095,0-5.612,2.518-5.612,5.612v263.273
								c0,3.095,2.518,5.612,5.612,5.612h180.746c3.095,0,5.612-2.518,5.612-5.612V70.647c0-3.094-2.518-5.612-5.612-5.612H492.988z
								"/>
						</g>
					</g>
					<g>
						<g>
							<path style="fill:#E0E0E0;" d="M465.306,339.783H284.56c-3.232,0-5.862-2.63-5.862-5.862V70.647
								c0-3.232,2.629-5.862,5.862-5.862h180.747c3.232,0,5.862,2.629,5.862,5.862v263.273
								C471.168,337.153,468.538,339.783,465.306,339.783z M284.56,65.035c-3.094,0-5.612,2.518-5.612,5.612v263.273
								c0,3.095,2.518,5.612,5.612,5.612h180.747c3.095,0,5.612-2.518,5.612-5.612V70.647c0-3.094-2.518-5.612-5.612-5.612H284.56z"
								/>
						</g>
					</g>
				</g>
				<g>
					<g>
						<g>
							<path style="fill:#E0E0E0;" d="M257.012,339.783H76.266c-3.232,0-5.862-2.63-5.862-5.862V70.647
								c0-3.232,2.629-5.862,5.862-5.862h180.746c3.232,0,5.862,2.629,5.862,5.862v263.273
								C262.875,337.153,260.245,339.783,257.012,339.783z M76.266,65.035c-3.094,0-5.612,2.518-5.612,5.612v263.273
								c0,3.095,2.518,5.612,5.612,5.612h180.746c3.095,0,5.612-2.518,5.612-5.612V70.647c0-3.094-2.518-5.612-5.612-5.612H76.266z"
								/>
						</g>
					</g>
				</g>
			</g>
			<g>
				<g>
					<rect y="400.852" style="fill:#E0E0E0;" width="750" height="0.12"/>
				</g>
			</g>
		</g>
		<g>
			<rect x="653.626" y="430.228" style="fill:#EBEBEB;" width="55.729" height="0.421"/>
			<rect x="495.044" y="434.794" style="fill:#EBEBEB;" width="14.627" height="0.421"/>
			<rect x="40.645" y="417.431" style="fill:#EBEBEB;" width="72.674" height="0.421"/>
			<rect x="128.299" y="417.431" style="fill:#EBEBEB;" width="10.656" height="0.421"/>
			<rect x="173.586" y="424.535" style="fill:#EBEBEB;" width="157.613" height="0.421"/>
		</g>
	</g>
	<g>
		<path style="fill:#EBEBEB;" d="M671.606,176.281L559.571,138.28c-3.509-1.19-5.389-5-4.199-8.51l22.807-67.239
			c1.19-3.51,5.001-5.389,8.51-4.199l112.035,38.001c3.509,1.19,5.39,5,4.199,8.51l-22.807,67.239
			C678.925,175.592,675.115,177.472,671.606,176.281z"/>
		<path style="fill:#FAFAFA;" d="M606.774,106.739l-19.431-6.591c-1.481-0.502-2.274-2.11-1.772-3.591l5.441-16.042
			c0.502-1.481,2.11-2.274,3.591-1.772l19.431,6.591c1.481,0.502,2.274,2.11,1.772,3.591l-5.441,16.042
			C609.863,106.448,608.255,107.242,606.774,106.739z"/>
		<path style="fill:#E0E0E0;" d="M579.216,115.566c5.374,1.823,10.748,3.646,16.122,5.468c1.832,0.621,2.619-2.275,0.797-2.893
			c-5.374-1.823-10.748-3.646-16.122-5.468C578.181,112.052,577.394,114.948,579.216,115.566L579.216,115.566z"/>
		<path style="fill:#E0E0E0;" d="M604.037,123.985c5.374,1.823,10.748,3.646,16.122,5.468c1.832,0.621,2.619-2.275,0.797-2.893
			c-5.374-1.823-10.748-3.646-16.122-5.468C603.002,120.471,602.216,123.368,604.037,123.985L604.037,123.985z"/>
		<path style="fill:#E0E0E0;" d="M628.859,132.405c5.374,1.823,10.748,3.646,16.122,5.468c1.832,0.622,2.619-2.275,0.797-2.893
			c-5.374-1.823-10.748-3.646-16.122-5.468C627.824,128.89,627.037,131.787,628.859,132.405L628.859,132.405z"/>
		<path style="fill:#E0E0E0;" d="M653.68,140.824c5.374,1.823,10.748,3.646,16.122,5.468c1.832,0.622,2.619-2.275,0.797-2.893
			c-5.374-1.823-10.748-3.646-16.122-5.468C652.646,137.31,651.859,140.206,653.68,140.824L653.68,140.824z"/>
	</g>
	<g>
		<g id="freepik--Bitcoin--inject-488_00000008838251258162876030000003299366091895040642_">
			<path style="fill:#E0E0E0;" d="M227.32,275.625c8.937,6.67,21.258,5.275,27.52-3.115l2.228-2.986l-32.363-24.154l-2.229,2.986
				C216.215,256.747,218.383,268.955,227.32,275.625z"/>
			
				<ellipse transform="matrix(0.9507 -0.3102 0.3102 0.9507 -67.9708 87.4104)" style="fill:#EBEBEB;" cx="240.887" cy="257.447" rx="20.191" ry="20.192"/>
			<path style="fill:#F5F5F5;" d="M231.218,270.403c7.155,5.34,17.285,3.869,22.625-3.287c5.34-7.155,3.869-17.285-3.286-22.625
				c-7.155-5.34-17.285-3.869-22.625,3.286C222.591,254.934,224.063,265.063,231.218,270.403z"/>
		</g>
		<g>
			<path style="fill:#E0E0E0;" d="M247.509,259.271c-0.005,1.057-0.336,2.054-0.993,2.99l0.372,0.383
				c0.188,0.194,0.283,0.434,0.284,0.721c0.001,0.287-0.096,0.525-0.29,0.713c-0.194,0.189-0.426,0.275-0.698,0.262
				c-0.272-0.014-0.507-0.123-0.705-0.327l-0.327-0.337c-0.813,0.612-1.657,0.996-2.53,1.149c-0.873,0.154-1.659,0.095-2.359-0.177
				c-0.331-0.135-0.57-0.279-0.719-0.432c-0.199-0.204-0.296-0.452-0.292-0.744c0.004-0.291,0.113-0.541,0.328-0.75
				c0.173-0.168,0.376-0.266,0.607-0.293c0.232-0.027,0.458,0.011,0.678,0.115c0.439,0.228,0.919,0.302,1.438,0.224
				c0.52-0.078,1.013-0.264,1.48-0.56l-3.123-3.335c-1.115,0.548-2.123,0.843-3.025,0.886c-0.901,0.042-1.693-0.289-2.378-0.993
				c-0.694-0.714-1.032-1.552-1.014-2.513c0.019-0.96,0.402-1.914,1.15-2.859l-0.312-0.321c-0.189-0.194-0.285-0.432-0.291-0.714
				c-0.007-0.281,0.082-0.512,0.266-0.69c0.194-0.188,0.434-0.278,0.721-0.269c0.287,0.009,0.525,0.11,0.713,0.304l0.298,0.306
				c0.906-0.722,1.78-1.115,2.62-1.178c0.842-0.064,1.55,0.201,2.125,0.792c0.218,0.225,0.328,0.481,0.328,0.767
				c0.001,0.287-0.101,0.53-0.305,0.728c-0.184,0.178-0.396,0.271-0.638,0.278c-0.242,0.007-0.462-0.072-0.661-0.236
				c-0.239-0.185-0.55-0.254-0.932-0.21c-0.384,0.045-0.788,0.205-1.215,0.481l2.766,2.968c2.433-1.194,4.294-1.127,5.583,0.2
				C247.164,257.324,247.514,258.215,247.509,259.271z M237.591,257.644c0.398,0.001,0.911-0.126,1.538-0.379l-2.381-2.479
				c-0.359,0.488-0.547,0.943-0.562,1.365c-0.016,0.423,0.124,0.787,0.422,1.094C236.866,257.51,237.193,257.643,237.591,257.644z
				 M245.583,259.327c-0.008-0.508-0.17-0.926-0.487-1.253c-0.258-0.265-0.6-0.414-1.028-0.445c-0.428-0.031-0.98,0.094-1.658,0.376
				l2.722,2.832C245.44,260.339,245.591,259.836,245.583,259.327z"/>
		</g>
		<path style="fill:#E0E0E0;" d="M224.806,258.509c-0.754-8.934,5.877-16.787,14.811-17.541c8.934-0.754,16.787,5.877,17.541,14.811
			c-1.67-8.038-9.078-13.564-17.259-12.873c-8.934,0.754-15.565,8.607-14.811,17.541
			C224.955,259.807,224.861,259.16,224.806,258.509z"/>
	</g>
	<g>
		<g id="freepik--Bitcoin--inject-488_00000123405940103436733520000010461042132830295223_">
			<path style="fill:#E0E0E0;" d="M430.857,96.602c-6.15,15.788,0.879,33.267,15.701,39.041l5.275,2.055l22.272-57.172l-5.275-2.055
				C454.009,72.697,437.007,80.814,430.857,96.602z"/>
			
				<ellipse transform="matrix(0.256 -0.9667 0.9667 0.256 238.9784 528.7234)" style="fill:#EBEBEB;" cx="462.969" cy="109.112" rx="30.679" ry="30.679"/>
			<path style="fill:#F5F5F5;" d="M440.082,100.196c-4.924,12.64,1.331,26.879,13.971,31.803
				c12.64,4.924,26.879-1.331,31.803-13.971c4.924-12.64-1.331-26.879-13.971-31.803S445.006,87.556,440.082,100.196z"/>
		</g>
		<g>
			<path style="fill:#E0E0E0;" d="M462.979,119.547c-1.551,0.421-3.143,0.339-4.781-0.245l-0.41,0.7
				c-0.207,0.354-0.521,0.59-0.941,0.707c-0.42,0.117-0.807,0.073-1.161-0.135c-0.355-0.208-0.576-0.513-0.666-0.916
				c-0.089-0.404-0.025-0.792,0.193-1.165l0.361-0.616c-1.226-0.943-2.129-2.024-2.706-3.24c-0.579-1.216-0.81-2.392-0.696-3.527
				c0.064-0.539,0.178-0.948,0.342-1.228c0.219-0.373,0.542-0.616,0.972-0.728c0.428-0.112,0.839-0.053,1.231,0.177
				c0.317,0.186,0.542,0.442,0.675,0.771c0.133,0.329,0.169,0.676,0.106,1.039c-0.156,0.736-0.07,1.468,0.254,2.197
				c0.324,0.73,0.797,1.376,1.419,1.94l3.62-5.923c-1.254-1.411-2.095-2.768-2.522-4.071c-0.427-1.303-0.263-2.597,0.492-3.885
				c0.765-1.306,1.855-2.14,3.269-2.501c1.414-0.361,2.965-0.186,4.653,0.526l0.344-0.587c0.208-0.355,0.517-0.593,0.928-0.716
				c0.409-0.123,0.783-0.087,1.118,0.11c0.355,0.208,0.583,0.523,0.686,0.947c0.103,0.424,0.051,0.813-0.157,1.168l-0.328,0.56
				c1.424,1.035,2.353,2.155,2.786,3.361c0.434,1.207,0.334,2.352-0.3,3.433c-0.241,0.411-0.571,0.675-0.991,0.791
				c-0.42,0.118-0.816,0.067-1.19-0.152c-0.336-0.197-0.557-0.471-0.665-0.822c-0.108-0.351-0.081-0.706,0.078-1.064
				c0.174-0.424,0.15-0.908-0.07-1.45c-0.221-0.544-0.619-1.071-1.196-1.585l-3.227,5.252c2.733,3.08,3.388,5.832,1.967,8.257
				C465.691,118.254,464.528,119.127,462.979,119.547z M461.348,104.364c0.16,0.583,0.552,1.283,1.177,2.1l2.667-4.49
				c-0.86-0.328-1.602-0.419-2.227-0.271c-0.626,0.148-1.103,0.501-1.431,1.061C461.25,103.248,461.187,103.782,461.348,104.364z
				 M462.117,116.749c0.741-0.217,1.287-0.623,1.637-1.221c0.284-0.485,0.363-1.047,0.236-1.685
				c-0.127-0.639-0.535-1.397-1.222-2.276l-3.045,5.133C460.578,116.95,461.376,116.967,462.117,116.749z"/>
		</g>
		<path style="fill:#E0E0E0;" d="M454.905,85.992c12.778-4.72,26.963,1.812,31.684,14.59c4.72,12.778-1.812,26.963-14.59,31.683
			c11.095-5.699,16.189-18.785,11.867-30.486c-4.72-12.778-18.905-19.31-31.683-14.59C453.065,86.735,453.974,86.336,454.905,85.992
			z"/>
	</g>
	<g>
		<g id="freepik--Bitcoin--inject-488_00000011709875517055971760000000570749261329670812_">
			<path style="fill:#E0E0E0;" d="M541.188,371.626c0.072,11.151,8.617,20.136,19.086,20.069l3.726-0.024l-0.261-40.382
				l-3.726,0.024C549.545,351.38,541.117,360.475,541.188,371.626z"/>
			
				<ellipse transform="matrix(0.2279 -0.9737 0.9737 0.2279 73.6591 835.8494)" style="fill:#EBEBEB;" cx="563.87" cy="371.479" rx="20.192" ry="20.191"/>
			<path style="fill:#F5F5F5;" d="M547.704,371.584c0.058,8.928,7.342,16.119,16.27,16.061c8.928-0.058,16.119-7.342,16.061-16.27
				c-0.058-8.928-7.342-16.119-16.27-16.061C554.838,355.371,547.647,362.656,547.704,371.584z"/>
		</g>
		<g>
			<path style="fill:#E0E0E0;" d="M566.411,377.86c-0.846,0.634-1.841,0.971-2.984,1.012l-0.081,0.528
				c-0.041,0.267-0.176,0.488-0.404,0.661c-0.229,0.174-0.476,0.24-0.743,0.199c-0.267-0.041-0.477-0.174-0.63-0.399
				c-0.153-0.225-0.208-0.478-0.165-0.759l0.071-0.464c-0.979-0.279-1.794-0.721-2.442-1.325c-0.65-0.603-1.077-1.266-1.282-1.989
				c-0.092-0.345-0.121-0.623-0.089-0.834c0.043-0.282,0.182-0.509,0.418-0.682c0.234-0.172,0.5-0.236,0.796-0.191
				c0.239,0.037,0.439,0.139,0.6,0.308c0.161,0.169,0.268,0.372,0.318,0.61c0.083,0.488,0.314,0.915,0.689,1.282
				c0.376,0.368,0.822,0.648,1.339,0.842l0.776-4.503c-1.11-0.559-1.954-1.185-2.531-1.878c-0.577-0.693-0.791-1.525-0.643-2.496
				c0.151-0.985,0.615-1.759,1.392-2.324c0.777-0.565,1.769-0.834,2.974-0.808l0.068-0.443c0.041-0.267,0.173-0.488,0.394-0.663
				c0.22-0.175,0.458-0.243,0.711-0.204c0.267,0.041,0.484,0.179,0.649,0.413c0.166,0.235,0.229,0.485,0.188,0.752l-0.065,0.422
				c1.122,0.287,1.963,0.747,2.52,1.379c0.559,0.633,0.775,1.358,0.651,2.173c-0.047,0.31-0.185,0.552-0.414,0.725
				c-0.229,0.174-0.483,0.239-0.765,0.196c-0.253-0.039-0.455-0.152-0.606-0.341c-0.151-0.189-0.221-0.412-0.211-0.67
				c0.003-0.302-0.129-0.592-0.395-0.87c-0.267-0.279-0.639-0.505-1.117-0.679l-0.698,3.996c2.42,1.22,3.489,2.744,3.209,4.573
				C567.755,376.411,567.256,377.227,566.411,377.86z M561.725,368.969c0.24,0.318,0.65,0.65,1.23,0.998l0.541-3.394
				c-0.606,0.008-1.082,0.133-1.428,0.375c-0.347,0.242-0.553,0.574-0.618,0.996C561.394,368.31,561.485,368.652,561.725,368.969z
				 M565.204,376.358c0.401-0.313,0.636-0.694,0.705-1.144c0.056-0.365-0.032-0.729-0.265-1.088c-0.233-0.36-0.666-0.725-1.3-1.096
				l-0.616,3.879C564.311,376.855,564.803,376.672,565.204,376.358z"/>
		</g>
		<path style="fill:#E0E0E0;" d="M553.322,359.295c6.67-5.991,16.934-5.44,22.925,1.23c5.991,6.67,5.44,16.934-1.23,22.924
			c5.403-6.181,5.341-15.423-0.145-21.531c-5.991-6.67-16.254-7.221-22.925-1.23C552.377,360.197,552.836,359.732,553.322,359.295z"
			/>
	</g>
</g>
<g id="Background_simple" style="display:none;">
	<g style="display:inline;">
		<path style="fill:#407BFF;" d="M556.319,145.343c-3.4-1.721-6.771-3.443-10.113-5.135c-25.126-12.726-49.479-26.979-72.872-42.664
			c-29.839-20.006-58.687-42.628-92.61-54.452c-88.118-30.713-201.967,23.914-228.828,114.576
			c-6.334,21.379-7.614,43.991-4.562,66.04c4.977,35.96,21.775,70.557,49.565,94.353c38.554,33.013,90.178,36.819,138.797,38.986
			c55.739,2.484,111.902-3.189,165.521-18.899c48.159-14.111,97.486-33.406,130.599-72.726
			c15.711-18.657,33.649-48.668,24.338-73.873c-6.557-17.748-21.4-18.728-37.466-21.847
			C597.161,165.524,576.251,155.435,556.319,145.343z"/>
	</g>
	<g style="display:inline;opacity:0.85;">
		<path style="fill:#FFFFFF;" d="M556.319,145.343c-3.4-1.721-6.771-3.443-10.113-5.135c-25.126-12.726-49.479-26.979-72.872-42.664
			c-29.839-20.006-58.687-42.628-92.61-54.452c-88.118-30.713-201.967,23.914-228.828,114.576
			c-6.334,21.379-7.614,43.991-4.562,66.04c4.977,35.96,21.775,70.557,49.565,94.353c38.554,33.013,90.178,36.819,138.797,38.986
			c55.739,2.484,111.902-3.189,165.521-18.899c48.159-14.111,97.486-33.406,130.599-72.726
			c15.711-18.657,33.649-48.668,24.338-73.873c-6.557-17.748-21.4-18.728-37.466-21.847
			C597.161,165.524,576.251,155.435,556.319,145.343z"/>
	</g>
</g>
<g id="Shadow">
	<g>
		<g>
			<path style="fill:#F5F5F5;" d="M706.056,451.164c0,3.387-148.063,6.132-330.708,6.132S44.64,454.551,44.64,451.164
				c0-3.387,148.063-6.132,330.708-6.132S706.056,447.777,706.056,451.164z"/>
		</g>
	</g>
</g>
<g id="Device">
	<g>
		<polygon style="fill:#263238;" points="481.996,347.572 465.787,433.714 387.428,433.714 401.141,347.572 		"/>
		<polygon style="opacity:0.8;fill:#FFFFFF;" points="481.996,347.572 465.787,433.714 387.428,433.714 401.141,347.572 		"/>
		<path style="fill:#263238;" d="M338.453,446.937h190.511v-8.298c0-4.613-3.74-8.353-8.353-8.353H346.807
			c-4.613,0-8.354,3.74-8.354,8.353V446.937z"/>
		<path style="opacity:0.8;fill:#FFFFFF;" d="M338.453,446.937h190.511v-8.298c0-4.613-3.74-8.353-8.353-8.353H346.807
			c-4.613,0-8.354,3.74-8.354,8.353V446.937z"/>
		<g>
			<g>
				<path style="fill:#263238;" d="M598.44,121.878h-7.088H271.12h-7.088c-4.726,0-8.557,3.831-8.557,8.558v226.389
					c0,4.726,3.831,8.557,8.557,8.557h7.088h320.232h7.088c4.726,0,8.558-3.831,8.558-8.557V130.436
					C606.998,125.709,603.166,121.878,598.44,121.878z"/>
			</g>
			<g style="opacity:0.8;">
				<path style="fill:#FFFFFF;" d="M598.44,121.878h-7.088H271.12h-7.088c-4.726,0-8.557,3.831-8.557,8.558v226.389
					c0,4.726,3.831,8.557,8.557,8.557h7.088h320.232h7.088c4.726,0,8.558-3.831,8.558-8.557V130.436
					C606.998,125.709,603.166,121.878,598.44,121.878z"/>
			</g>
			<g style="opacity:0.2;enable-background:new    ;">
				<path d="M271.117,365.376h-7.088c-4.721,0-8.548-3.827-8.548-8.548V130.439c0-4.735,3.827-8.562,8.548-8.562h7.088
					c-4.721,0-8.548,3.827-8.548,8.562v226.389C262.568,361.549,266.396,365.376,271.117,365.376z"/>
			</g>
			<rect x="270.284" y="129.23" style="fill:#407BFF;" width="329.006" height="218.304"/>
			<rect x="270.284" y="129.23" style="fill:#FFFFFF;" width="329.006" height="218.304"/>
			<g>
				<g>
					<g>
						<rect x="270.021" y="129.23" style="fill:#407BFF;" width="329.396" height="218.562"/>
					</g>
					<g style="opacity:0.5;">
						<rect x="270.021" y="129.23" style="fill:#FFFFFF;" width="329.396" height="218.562"/>
					</g>
					<rect x="270.021" y="129.23" style="fill:#407BFF;" width="107.232" height="218.873"/>
					<g style="opacity:0.3;">
						<path style="fill:#FFFFFF;" d="M593.174,139.828c0,2.059-1.669,3.728-3.728,3.728c-2.059,0-3.727-1.669-3.727-3.728
							c0-2.059,1.669-3.728,3.727-3.728C591.505,136.101,593.174,137.77,593.174,139.828z"/>
					</g>
					<g style="opacity:0.3;">
						<path style="fill:#FFFFFF;" d="M582.579,139.828c0,2.059-1.669,3.728-3.728,3.728c-2.059,0-3.728-1.669-3.728-3.728
							c0-2.059,1.669-3.728,3.728-3.728C580.911,136.101,582.579,137.77,582.579,139.828z"/>
					</g>
					<g style="opacity:0.3;">
						<path style="fill:#FFFFFF;" d="M571.985,139.828c0,2.059-1.669,3.728-3.728,3.728s-3.728-1.669-3.728-3.728
							c0-2.059,1.669-3.728,3.728-3.728S571.985,137.77,571.985,139.828z"/>
					</g>
				</g>
			</g>
		</g>
		<path style="opacity:0.1;fill:#FFFFFF;" d="M270.021,296.031c0-1.898,15.125-26.573,48.399-52.513
			c33.274-25.94,74.413-8.225,114.342-36.696s69.408-77.593,69.408-77.593l-71.117-0.27c0,0-9.181,55.087-51.53,62.046
			c-42.349,6.96-109.502,49.349-109.502,49.349V296.031z"/>
		<path style="opacity:0.1;fill:#FFFFFF;" d="M307.975,348.103c0,0,159.111-134.761,179.68-160.069
			c20.569-25.307,70.638-59.075,70.638-59.075h16.831c0,0-49.96,38.829-72.344,59.075
			c-22.384,20.246-167.581,160.069-167.581,160.069H307.975z"/>
		<g>
			<g>
				<path style="fill:#407BFF;" d="M320.092,164.409H305.49c-0.456,0-0.654-0.577-0.294-0.857l6.898-5.374l7.704-6.002
					c0.173-0.135,0.416-0.135,0.589,0l7.704,6.002l6.898,5.374c0.36,0.28,0.161,0.857-0.294,0.857H320.092z"/>
			</g>
			<g style="opacity:0.7;">
				<path style="fill:#FFFFFF;" d="M320.092,164.409H305.49c-0.456,0-0.654-0.577-0.294-0.857l6.898-5.374l7.704-6.002
					c0.173-0.135,0.416-0.135,0.589,0l7.704,6.002l6.898,5.374c0.36,0.28,0.161,0.857-0.294,0.857H320.092z"/>
			</g>
			<g>
				<path style="fill:#407BFF;" d="M330.416,162.853h-20.648c-0.168,0-0.316-0.107-0.371-0.265
					c-0.055-0.158-0.002-0.334,0.129-0.437v0l10.324-8.043c0.142-0.111,0.34-0.11,0.482,0l10.324,8.043
					c0.132,0.103,0.184,0.279,0.129,0.437C330.732,162.746,330.583,162.853,330.416,162.853z M309.884,162.61L309.884,162.61
					L309.884,162.61L309.884,162.61z M310.319,162.271h19.546l-9.773-7.614L310.319,162.271z"/>
			</g>
			<g>
				<rect x="308.367" y="164.409" style="fill:#407BFF;" width="2.79" height="11.92"/>
			</g>
			<g style="opacity:0.7;">
				<rect x="308.367" y="164.409" style="fill:#FFFFFF;" width="2.79" height="11.92"/>
			</g>
			<g>
				<rect x="314.694" y="164.409" style="fill:#407BFF;" width="2.79" height="11.92"/>
			</g>
			<g style="opacity:0.7;">
				<rect x="314.694" y="164.409" style="fill:#FFFFFF;" width="2.79" height="11.92"/>
			</g>
			<g>
				<rect x="323.279" y="164.409" style="fill:#407BFF;" width="2.79" height="11.92"/>
			</g>
			<g style="opacity:0.7;">
				<rect x="323.279" y="164.409" style="fill:#FFFFFF;" width="2.79" height="11.92"/>
			</g>
			<g>
				<rect x="329.5" y="164.409" style="fill:#407BFF;" width="2.79" height="11.92"/>
			</g>
			<g style="opacity:0.7;">
				<rect x="329.5" y="164.409" style="fill:#FFFFFF;" width="2.79" height="11.92"/>
			</g>
			<g>
				<path style="fill:#407BFF;" d="M334.974,179.398H305.21c-0.428,0-0.741-0.404-0.635-0.818l0.451-1.758
					c0.075-0.29,0.336-0.492,0.635-0.492h28.752c0.285,0,0.538,0.185,0.624,0.456l0.56,1.758
					C335.733,178.966,335.417,179.398,334.974,179.398z"/>
			</g>
			<g style="opacity:0.7;">
				<path style="fill:#FFFFFF;" d="M334.974,179.398H305.21c-0.428,0-0.741-0.404-0.635-0.818l0.451-1.758
					c0.075-0.29,0.336-0.492,0.635-0.492h28.752c0.285,0,0.538,0.185,0.624,0.456l0.56,1.758
					C335.733,178.966,335.417,179.398,334.974,179.398z"/>
			</g>
			<g>
				<path style="fill:#407BFF;" d="M320.092,161.287c-1.09,0-1.977-0.887-1.977-1.977c0-1.09,0.887-1.977,1.977-1.977
					c1.09,0,1.977,0.887,1.977,1.977C322.069,160.4,321.182,161.287,320.092,161.287z M320.092,157.915
					c-0.769,0-1.395,0.626-1.395,1.395c0,0.769,0.626,1.395,1.395,1.395c0.77,0,1.396-0.626,1.396-1.395
					C321.487,158.541,320.861,157.915,320.092,157.915z"/>
			</g>
			<g>
				<path style="fill:#407BFF;" d="M333.715,166.141h-27.247c-0.385,0-0.697-0.312-0.697-0.697v-0.338
					c0-0.385,0.312-0.697,0.697-0.697h27.247c0.385,0,0.697,0.312,0.697,0.697v0.338C334.412,165.829,334.1,166.141,333.715,166.141
					z"/>
			</g>
			<g style="opacity:0.7;">
				<path style="fill:#FFFFFF;" d="M333.715,166.141h-27.247c-0.385,0-0.697-0.312-0.697-0.697v-0.338
					c0-0.385,0.312-0.697,0.697-0.697h27.247c0.385,0,0.697,0.312,0.697,0.697v0.338C334.412,165.829,334.1,166.141,333.715,166.141
					z"/>
			</g>
			<g>
				<path style="fill:#407BFF;" d="M333.779,164.792h-27.375c-0.161,0-0.291-0.13-0.291-0.291c0-0.161,0.13-0.291,0.291-0.291
					h27.375c0.161,0,0.291,0.13,0.291,0.291C334.07,164.662,333.94,164.792,333.779,164.792z"/>
			</g>
			<g>
				<path style="fill:#407BFF;" d="M333.779,178.209h-27.375c-0.161,0-0.291-0.13-0.291-0.291s0.13-0.291,0.291-0.291h27.375
					c0.161,0,0.291,0.13,0.291,0.291S333.94,178.209,333.779,178.209z"/>
			</g>
		</g>
		<rect x="294.092" y="186.191" style="opacity:0.7;fill:#FFFFFF;" width="53.75" height="4.794"/>
		<rect x="294.092" y="210.477" style="opacity:0.7;fill:#FFFFFF;" width="53.75" height="4.795"/>
		<rect x="294.092" y="221.374" style="opacity:0.7;fill:#FFFFFF;" width="26" height="4.795"/>
		<rect x="294.092" y="248.525" style="opacity:0.7;fill:#FFFFFF;" width="61.692" height="4.795"/>
		<rect x="294.092" y="260.182" style="opacity:0.7;fill:#FFFFFF;" width="21.955" height="4.794"/>
		<rect x="341.905" y="260.182" style="opacity:0.7;fill:#FFFFFF;" width="15.011" height="4.794"/>
		<rect x="294.092" y="272.861" style="opacity:0.7;fill:#FFFFFF;" width="21.955" height="4.795"/>
		<rect x="341.905" y="272.861" style="opacity:0.7;fill:#FFFFFF;" width="15.011" height="4.795"/>
		<rect x="294.092" y="285.539" style="opacity:0.7;fill:#FFFFFF;" width="21.955" height="4.795"/>
		<rect x="341.905" y="285.539" style="opacity:0.7;fill:#FFFFFF;" width="15.011" height="4.795"/>
		<rect x="294.092" y="298.218" style="opacity:0.7;fill:#FFFFFF;" width="21.955" height="4.795"/>
		<rect x="341.905" y="298.218" style="opacity:0.7;fill:#FFFFFF;" width="15.011" height="4.795"/>
		<rect x="294.092" y="310.897" style="opacity:0.7;fill:#FFFFFF;" width="21.955" height="4.795"/>
		<rect x="341.905" y="310.897" style="opacity:0.7;fill:#FFFFFF;" width="15.011" height="4.795"/>
		<g>
			<path style="fill:#407BFF;" d="M474.003,220.192h-70.106c-0.92,0-1.665-0.745-1.665-1.665v-43.735
				c0-0.92,0.745-1.665,1.665-1.665h70.106c0.92,0,1.665,0.745,1.665,1.665v43.735C475.668,219.446,474.922,220.192,474.003,220.192
				z"/>
			<path style="opacity:0.6;fill:#FFFFFF;" d="M424.766,195.087h-10.479c-1.137,0-2.059-0.922-2.059-2.059v-8.484
				c0-1.137,0.922-2.059,2.059-2.059h10.479c1.137,0,2.059,0.922,2.059,2.059v8.484
				C426.825,194.165,425.903,195.087,424.766,195.087z"/>
			<g style="opacity:0.3;">
				<path d="M412.228,204.683c3.164,0,6.327,0,9.491,0c1.076,0,1.077-1.671,0-1.671c-3.164,0-6.327,0-9.491,0
					C411.153,203.011,411.151,204.683,412.228,204.683L412.228,204.683z"/>
			</g>
			<g style="opacity:0.3;">
				<path d="M426.841,204.683c3.164,0,6.327,0,9.491,0c1.076,0,1.077-1.671,0-1.671c-3.164,0-6.327,0-9.491,0
					C425.765,203.011,425.763,204.683,426.841,204.683L426.841,204.683z"/>
			</g>
			<g style="opacity:0.3;">
				<path d="M441.453,204.683c3.164,0,6.327,0,9.491,0c1.076,0,1.077-1.671,0-1.671c-3.164,0-6.327,0-9.491,0
					C440.378,203.011,440.376,204.683,441.453,204.683L441.453,204.683z"/>
			</g>
			<g style="opacity:0.3;">
				<path d="M456.065,204.683c3.164,0,6.327,0,9.491,0c1.076,0,1.077-1.671,0-1.671c-3.164,0-6.327,0-9.491,0
					C454.99,203.011,454.988,204.683,456.065,204.683L456.065,204.683z"/>
			</g>
		</g>
		<g>
			<path style="fill:#407BFF;" d="M512.262,177.011"/>
		</g>
		<g>
			<path style="fill:#407BFF;" d="M515.092,190.223c0,0,4.393-14.559,20.96-15.187c16.567-0.628,29.746,3.765,30.248,18.45
				c0.502,14.685-8.033,17.572-8.033,17.572l-0.251,7.656h-8.409v-4.518c0,0-11.045,0.502-15.187-0.753v6.527h-9.037l-0.125-8.786
				c0,0-6.652-3.263-8.786-8.911l-4.644,0c-1.593-4.677-2.136-9.261-0.724-12.14L515.092,190.223z"/>
			<g>
				<path style="fill:#407BFF;" d="M524.64,181.659c-0.315-2.634-0.63-5.269-0.945-7.903c-0.032-0.267-0.06-0.554,0.068-0.79
					c0.222-0.408,0.783-0.463,1.244-0.406c1.963,0.242,3.658,1.575,4.795,3.193c1.137,1.618,1.798,3.514,2.446,5.383"/>
			</g>
			<g>
				<path style="fill:#407BFF;" d="M523.577,178.939c-1.137-1.618-2.832-2.951-4.795-3.193c-0.461-0.057-1.022-0.002-1.244,0.406
					c-0.128,0.236-0.1,0.523-0.068,0.79c0.315,2.634,0.63,5.269,0.945,7.903l7.608-0.523
					C525.375,182.453,524.714,180.557,523.577,178.939z"/>
			</g>
			<path style="fill:#263238;" d="M538.427,178.618c3.359-0.341,6.739-0.066,9.996,0.822c0.466,0.127,0.665-0.596,0.199-0.723
				c-3.317-0.905-6.775-1.196-10.196-0.849C537.952,177.916,537.947,178.667,538.427,178.618L538.427,178.618z"/>
			<path style="fill:#263238;" d="M522.847,188.67c0.106,0.795,0.094,1.609-0.05,2.385c-0.036,0.192,0.053,0.414,0.262,0.461
				c0.184,0.042,0.423-0.056,0.461-0.262c0.159-0.854,0.192-1.723,0.077-2.585c-0.026-0.194-0.154-0.385-0.375-0.375
				C523.041,188.303,522.82,188.462,522.847,188.67L522.847,188.67z"/>
			<path style="fill:#263238;" d="M566.439,193.259c0.852-1.419,2.897-1.34,4.025-0.321c1.199,1.083,1.961,3.418,1.237,4.945
				c-0.41,0.866-1.546,1.32-2.203,0.445c-0.614-0.817-0.301-1.941,0.016-2.814c0.565-1.556,1.627-3.067,3.188-3.742
				c1.573-0.68,3.669-0.289,4.586,1.244c0.247,0.414,0.896,0.037,0.648-0.379c-1.037-1.736-3.329-2.33-5.189-1.685
				c-2.149,0.745-3.564,2.86-4.152,4.972c-0.295,1.061-0.315,2.315,0.543,3.13c0.746,0.708,1.829,0.632,2.592-0.005
				c1.736-1.45,0.935-4.633-0.283-6.155c-1.391-1.738-4.389-2.124-5.656-0.014C565.542,193.295,566.19,193.673,566.439,193.259
				L566.439,193.259z"/>
			<path style="fill:#263238;" d="M511.159,190.747c1.685,3.29,2.129,7.114,1.251,10.703c-0.115,0.469,0.608,0.669,0.723,0.199
				c0.927-3.791,0.452-7.809-1.327-11.281C511.586,189.939,510.939,190.318,511.159,190.747L511.159,190.747z"/>
		</g>
		<path style="opacity:0.3;fill:#407BFF;" d="M474.514,327.869h-72.972c-3.379,0-6.118-2.739-6.118-6.118v-72.972
			c0-3.379,2.739-6.118,6.118-6.118h72.972c3.379,0,6.118,2.739,6.118,6.118v72.972C480.632,325.13,477.893,327.869,474.514,327.869
			z"/>
		<g>
			<g id="freepik--Bitcoin--inject-488_00000080888128035505840300000009175377559567137426_">
				<path style="fill:#407BFF;" d="M413.983,289.488c2.076,12.993,13.648,21.946,25.846,19.997l4.341-0.694l-7.519-47.053
					l-4.341,0.694C420.113,264.381,411.907,276.495,413.983,289.488z"/>
				<path style="opacity:0.3;enable-background:new    ;" d="M413.983,289.488c2.076,12.993,13.648,21.946,25.846,19.997
					l4.341-0.694l-7.519-47.053l-4.341,0.694C420.113,264.381,411.907,276.495,413.983,289.488z"/>
				
					<ellipse transform="matrix(0.9991 -0.0434 0.0434 0.9991 -11.9757 19.3999)" style="fill:#407BFF;" cx="440.412" cy="285.265" rx="23.825" ry="23.825"/>
				<path style="fill:#407BFF;" d="M421.576,288.275c1.662,10.403,11.443,17.488,21.846,15.826
					c10.403-1.662,17.488-11.443,15.826-21.846c-1.662-10.403-11.443-17.489-21.846-15.826
					C426.999,268.091,419.913,277.872,421.576,288.275z"/>
				<path style="opacity:0.3;fill:#FFFFFF;" d="M421.576,288.275c1.662,10.403,11.443,17.488,21.846,15.826
					c10.403-1.662,17.488-11.443,15.826-21.846c-1.662-10.403-11.443-17.489-21.846-15.826
					C426.999,268.091,419.913,277.872,421.576,288.275z"/>
			</g>
			<g>
				<path style="fill:#407BFF;" d="M444.515,292.253c-0.874,0.891-1.973,1.461-3.3,1.713v0.63c0,0.319-0.118,0.6-0.353,0.844
					c-0.235,0.243-0.512,0.365-0.831,0.365c-0.319,0-0.587-0.118-0.806-0.353c-0.218-0.235-0.328-0.521-0.328-0.856v-0.554
					c-1.192-0.151-2.221-0.521-3.085-1.109c-0.865-0.587-1.482-1.285-1.851-2.09c-0.169-0.386-0.252-0.705-0.252-0.957
					c0-0.336,0.121-0.626,0.365-0.87c0.243-0.243,0.541-0.365,0.895-0.365c0.285,0,0.536,0.084,0.755,0.252
					c0.219,0.168,0.379,0.387,0.479,0.655c0.185,0.554,0.529,1.012,1.033,1.373c0.504,0.362,1.074,0.609,1.712,0.743l0.101-5.39
					c-1.394-0.453-2.49-1.033-3.288-1.738c-0.797-0.706-1.195-1.637-1.195-2.796c0-1.175,0.403-2.162,1.209-2.959
					c0.806-0.797,1.914-1.289,3.324-1.474v-0.529c0-0.319,0.114-0.6,0.341-0.844c0.226-0.243,0.49-0.365,0.793-0.365
					c0.319,0,0.596,0.122,0.831,0.365c0.236,0.244,0.353,0.525,0.353,0.844v0.504c1.36,0.135,2.422,0.521,3.186,1.158
					c0.765,0.638,1.147,1.445,1.147,2.418c0,0.37-0.118,0.677-0.353,0.919c-0.235,0.244-0.521,0.365-0.857,0.365
					c-0.302,0-0.558-0.096-0.768-0.29c-0.21-0.193-0.331-0.441-0.365-0.743c-0.05-0.353-0.256-0.668-0.616-0.944
					c-0.362-0.277-0.835-0.474-1.424-0.592l-0.101,4.786c3.04,0.991,4.559,2.578,4.559,4.76
					C445.824,290.323,445.387,291.364,444.515,292.253z M437.461,282.72c0.336,0.328,0.874,0.643,1.613,0.945l0.024-4.055
					c-0.705,0.118-1.238,0.348-1.598,0.692c-0.362,0.345-0.542,0.768-0.542,1.272C436.958,282.01,437.125,282.393,437.461,282.72z
					 M442.839,290.717c0.411-0.436,0.618-0.923,0.618-1.461c0-0.436-0.167-0.844-0.504-1.221c-0.336-0.378-0.907-0.726-1.712-1.046
					l-0.025,4.635C441.886,291.456,442.427,291.154,442.839,290.717z"/>
			</g>
			<path style="fill:#407BFF;" d="M425.4,272.968c6.797-8.286,19.025-9.493,27.31-2.695c8.286,6.797,9.493,19.025,2.695,27.31
				c5.266-8.281,3.519-19.19-4.068-25.414c-8.286-6.797-20.513-5.59-27.31,2.695C424.446,274.205,424.905,273.572,425.4,272.968z"/>
			<path style="opacity:0.3;enable-background:new    ;" d="M425.4,272.968c6.797-8.286,19.025-9.493,27.31-2.695
				c8.286,6.797,9.493,19.025,2.695,27.31c5.266-8.281,3.519-19.19-4.068-25.414c-8.286-6.797-20.513-5.59-27.31,2.695
				C424.446,274.205,424.905,273.572,425.4,272.968z"/>
		</g>
		<g>
			<rect x="519.495" y="289.051" style="fill:#407BFF;" width="10.399" height="12.145"/>
			<rect x="535.435" y="277.655" style="fill:#407BFF;" width="10.399" height="23.541"/>
			<rect x="551.086" y="266.565" style="fill:#407BFF;" width="10.399" height="34.631"/>
		</g>
	</g>
</g>
<g id="Coin">
	<g>
		<g id="freepik--Bitcoin--inject-488_00000147900322469383539690000018386563127939295920_">
			<path style="fill:#407BFF;" d="M601.558,267.935c14.786,11.035,35.17,8.728,45.53-5.153l3.687-4.94l-53.544-39.961l-3.687,4.94
				C583.185,236.702,586.772,256.9,601.558,267.935z"/>
			<path style="opacity:0.3;enable-background:new    ;" d="M601.558,267.935c14.786,11.035,35.17,8.728,45.53-5.153l3.687-4.94
				l-53.544-39.961l-3.687,4.94C583.185,236.702,586.772,256.9,601.558,267.935z"/>
			<path style="fill:#407BFF;" d="M657.062,233.059c2.652,18.258-9.999,35.209-28.257,37.861
				c-18.258,2.652-35.209-9.999-37.861-28.257c-2.652-18.258,9.999-35.209,28.257-37.861
				C637.459,202.15,654.41,214.801,657.062,233.059z"/>
			
				<ellipse transform="matrix(0.4515 -0.8922 0.8922 0.4515 130.0044 687.2199)" style="fill:#407BFF;" cx="624.003" cy="237.861" rx="26.746" ry="26.746"/>
			
				<ellipse transform="matrix(0.4515 -0.8922 0.8922 0.4515 130.0044 687.2199)" style="opacity:0.3;fill:#FFFFFF;" cx="624.003" cy="237.861" rx="26.746" ry="26.746"/>
		</g>
		<g>
			<path style="fill:#407BFF;" d="M634.959,240.878c-0.008,1.75-0.556,3.398-1.644,4.947l0.616,0.633
				c0.311,0.32,0.468,0.718,0.469,1.193c0.001,0.475-0.158,0.868-0.479,1.18c-0.321,0.312-0.706,0.456-1.155,0.433
				c-0.45-0.023-0.838-0.203-1.166-0.541l-0.541-0.557c-1.346,1.013-2.742,1.647-4.185,1.9c-1.444,0.255-2.745,0.157-3.904-0.293
				c-0.547-0.223-0.943-0.462-1.189-0.715c-0.329-0.338-0.489-0.748-0.483-1.231c0.007-0.481,0.188-0.896,0.543-1.241
				c0.287-0.279,0.621-0.44,1.005-0.485c0.384-0.044,0.758,0.019,1.122,0.19c0.727,0.377,1.521,0.5,2.38,0.371
				c0.86-0.129,1.675-0.437,2.448-0.926l-5.167-5.518c-1.845,0.907-3.513,1.395-5.004,1.466c-1.491,0.07-2.802-0.478-3.935-1.643
				c-1.149-1.182-1.708-2.568-1.677-4.157c0.031-1.589,0.665-3.166,1.902-4.73l-0.516-0.531c-0.312-0.321-0.472-0.715-0.482-1.182
				c-0.011-0.465,0.136-0.846,0.44-1.142c0.321-0.312,0.718-0.46,1.193-0.445c0.475,0.015,0.868,0.183,1.18,0.504l0.492,0.506
				c1.5-1.194,2.944-1.844,4.335-1.949c1.393-0.105,2.565,0.332,3.516,1.31c0.361,0.372,0.543,0.795,0.543,1.27
				c0.002,0.475-0.166,0.876-0.504,1.205c-0.304,0.295-0.656,0.449-1.055,0.46c-0.4,0.011-0.764-0.12-1.094-0.39
				c-0.395-0.306-0.91-0.421-1.543-0.347c-0.635,0.075-1.303,0.339-2.01,0.796l4.576,4.91c4.025-1.975,7.104-1.864,9.237,0.33
				C634.388,237.657,634.966,239.13,634.959,240.878z M618.55,238.186c0.658,0.001,1.506-0.208,2.545-0.626l-3.939-4.101
				c-0.594,0.807-0.904,1.56-0.93,2.258c-0.027,0.7,0.205,1.303,0.698,1.81C617.35,237.965,617.892,238.185,618.55,238.186z
				 M631.772,240.971c-0.013-0.841-0.281-1.532-0.806-2.072c-0.426-0.439-0.993-0.685-1.7-0.736
				c-0.708-0.052-1.621,0.156-2.744,0.622l4.504,4.685C631.536,242.645,631.785,241.812,631.772,240.971z"/>
		</g>
		<path style="fill:#407BFF;" d="M596.892,240.168c-1.263-14.974,9.851-28.137,24.825-29.4c14.974-1.263,28.137,9.851,29.4,24.825
			c-2.799-13.472-15.216-22.734-28.927-21.577c-14.974,1.263-26.088,14.426-24.825,29.4
			C597.142,242.344,596.984,241.259,596.892,240.168z"/>
		<path style="opacity:0.3;enable-background:new    ;" d="M596.892,240.168c-1.263-14.974,9.851-28.137,24.825-29.4
			c14.974-1.263,28.137,9.851,29.4,24.825c-2.799-13.472-15.216-22.734-28.927-21.577c-14.974,1.263-26.088,14.426-24.825,29.4
			C597.142,242.344,596.984,241.259,596.892,240.168z"/>
	</g>
</g>
<g id="Bank_Icon">
	<g>
		<path style="fill:#407BFF;" d="M327.594,73.023h-35.091c-1.095,0-1.571-1.386-0.707-2.059l16.578-12.915l18.513-14.423
			c0.416-0.324,0.999-0.324,1.415,0l18.513,14.423l16.578,12.915c0.864,0.673,0.388,2.059-0.707,2.059H327.594z"/>
		<path style="opacity:0.7;fill:#FFFFFF;" d="M327.594,73.023h-35.091c-1.095,0-1.571-1.386-0.707-2.059l16.578-12.915
			l18.513-14.423c0.416-0.324,0.999-0.324,1.415,0l18.513,14.423l16.578,12.915c0.864,0.673,0.388,2.059-0.707,2.059H327.594z"/>
		<path style="fill:#407BFF;" d="M352.404,69.084h-49.62c-0.318,0-0.601-0.202-0.704-0.502c-0.103-0.3-0.004-0.633,0.247-0.829
			l24.81-19.328c0.27-0.21,0.647-0.208,0.915,0.001l24.809,19.327c0.25,0.195,0.35,0.528,0.247,0.828
			C353.005,68.882,352.722,69.084,352.404,69.084z M303.53,68.084h48.128l-24.064-18.747L303.53,68.084z"/>
		<rect x="299.418" y="73.023" style="fill:#407BFF;" width="6.704" height="28.646"/>
		<rect x="299.418" y="73.023" style="opacity:0.7;fill:#FFFFFF;" width="6.704" height="28.646"/>
		<rect x="314.622" y="73.023" style="fill:#407BFF;" width="6.704" height="28.646"/>
		<rect x="314.622" y="73.023" style="opacity:0.7;fill:#FFFFFF;" width="6.704" height="28.646"/>
		<rect x="335.253" y="73.023" style="fill:#407BFF;" width="6.704" height="28.646"/>
		<rect x="335.253" y="73.023" style="opacity:0.7;fill:#FFFFFF;" width="6.704" height="28.646"/>
		<rect x="350.202" y="73.023" style="fill:#407BFF;" width="6.704" height="28.646"/>
		<rect x="350.202" y="73.023" style="opacity:0.7;fill:#FFFFFF;" width="6.704" height="28.646"/>
		<path style="fill:#407BFF;" d="M363.357,109.043h-71.526c-1.029,0-1.782-0.97-1.526-1.967l1.085-4.225
			c0.179-0.696,0.807-1.183,1.526-1.183h69.094c0.685,0,1.292,0.443,1.501,1.097l1.347,4.225
			C365.182,108.006,364.424,109.043,363.357,109.043z"/>
		<path style="opacity:0.7;fill:#FFFFFF;" d="M363.357,109.043h-71.526c-1.029,0-1.782-0.97-1.526-1.967l1.085-4.225
			c0.179-0.696,0.807-1.183,1.526-1.183h69.094c0.685,0,1.292,0.443,1.501,1.097l1.347,4.225
			C365.182,108.006,364.424,109.043,363.357,109.043z"/>
		<path style="fill:#407BFF;" d="M327.594,65.321c-2.51,0-4.552-2.042-4.552-4.552c0-2.51,2.042-4.552,4.552-4.552
			c2.51,0,4.552,2.042,4.552,4.552C332.146,63.279,330.104,65.321,327.594,65.321z M327.594,57.217
			c-1.959,0-3.552,1.594-3.552,3.552s1.593,3.552,3.552,3.552c1.958,0,3.552-1.593,3.552-3.552S329.553,57.217,327.594,57.217z"/>
		<path style="fill:#407BFF;" d="M360.519,77.185h-65.85c-0.822,0-1.488-0.667-1.488-1.489v-1.184c0-0.822,0.666-1.488,1.488-1.488
			h65.85c0.822,0,1.488,0.666,1.488,1.488v1.184C362.008,76.518,361.341,77.185,360.519,77.185z"/>
		<path style="opacity:0.7;fill:#FFFFFF;" d="M360.519,77.185h-65.85c-0.822,0-1.488-0.667-1.488-1.489v-1.184
			c0-0.822,0.666-1.488,1.488-1.488h65.85c0.822,0,1.488,0.666,1.488,1.488v1.184C362.008,76.518,361.341,77.185,360.519,77.185z"/>
		<path style="fill:#407BFF;" d="M360.487,73.745h-65.785c-0.276,0-0.5-0.224-0.5-0.5c0-0.276,0.224-0.5,0.5-0.5h65.785
			c0.276,0,0.5,0.224,0.5,0.5C360.987,73.521,360.763,73.745,360.487,73.745z"/>
		<path style="fill:#407BFF;" d="M360.487,105.987h-65.785c-0.276,0-0.5-0.224-0.5-0.5s0.224-0.5,0.5-0.5h65.785
			c0.276,0,0.5,0.224,0.5,0.5S360.763,105.987,360.487,105.987z"/>
	</g>
</g>
<g id="Plant">
	<g>
		<g>
			<g>
				<g>
					<path style="fill:#407BFF;" d="M626.895,336.059c0.404-0.633,5.623-1.99,10.109,4.254l-0.482,4.834l2.247-2.917
						c0,0,1.232,0.949,0.701,3.329c-0.531,2.379-0.883,4.525-0.883,4.525s1.988-5.719,2.571-5.27
						c0.583,0.449,6.604,8.804,7.698,10.763c1.094,1.958,3.555,12.084,1.74,13.475c-1.815,1.391-5.863,2.498-10.379,0.879
						c-4.516-1.619-8.871-9.807-8.871-9.807l5.575-4.257l-7.015,2.591C629.908,358.457,621.484,344.533,626.895,336.059z"/>
					<path style="opacity:0.1;fill:#FFFFFF;" d="M626.895,336.059c9.149,15.046,20.92,25.989,23.702,32.992
						c-1.815,1.391-5.863,2.498-10.379,0.879c-4.516-1.619-8.871-9.807-8.871-9.807l5.575-4.257l-7.015,2.591
						C629.908,358.457,621.484,344.533,626.895,336.059z"/>
					<path style="fill:#263238;" d="M631.98,344.538c0.142,0.634,0.962,1.357,1.347,1.844c1.11,1.406,2.241,2.797,3.372,4.186
						c2.285,2.807,4.583,5.603,6.888,8.395c7.455,9.032,10.89,20.07,12.661,31.492c1.238,7.985,1.785,16.058,2.505,24.101
						c0.043,0.477,0.793,0.481,0.75,0c-1.218-13.613-1.782-27.737-6.549-40.692c-1.945-5.286-4.636-10.296-8.206-14.668
						c-1.923-2.355-3.868-4.691-5.793-7.044c-1.405-1.718-2.808-3.437-4.195-5.169c-0.5-0.624-1-1.247-1.487-1.881
						c-0.145-0.189-0.563-0.743-0.568-0.764C632.597,343.868,631.874,344.067,631.98,344.538L631.98,344.538z"/>
				</g>
				<path style="fill:#407BFF;" d="M698.204,372.095c-0.166-0.613-4.037-3.032-9.242,0.874l-0.836,4.026l-1.075-2.925
					c0,0-1.236,0.454-1.41,2.511c-0.174,2.056-0.434,3.879-0.434,3.879s-0.156-5.123-0.741-4.908
					c-0.585,0.215-7.565,5.437-8.945,6.742c-1.38,1.304-6.874,7.439-4.82,10.442c1.093,1.597,4.103,3.503,8.16,3.34
					c4.057-0.163,9.65-5.673,9.65-5.673l-3.424-4.851l5.009,3.87C690.095,389.421,700.427,380.31,698.204,372.095z"/>
				<path style="opacity:0.3;" d="M698.204,372.095c-0.166-0.613-4.037-3.032-9.242,0.874l-0.836,4.026l-1.075-2.925
					c0,0-1.236,0.454-1.41,2.511c-0.174,2.056-0.434,3.879-0.434,3.879s-0.156-5.123-0.741-4.908
					c-0.585,0.215-7.565,5.437-8.945,6.742c-1.38,1.304-6.874,7.439-4.82,10.442c1.093,1.597,4.103,3.503,8.16,3.34
					c4.057-0.163,9.65-5.673,9.65-5.673l-3.424-4.851l5.009,3.87C690.095,389.421,700.427,380.31,698.204,372.095z"/>
				<path style="fill:#407BFF;" d="M698.096,354.916c0,0,0.933-6.344-10.262-3.918v7.09l-2.612-6.344c0,0-6.531,0.194-8.583,2.522
					v7.367l-3.918-5.594c0,0-7.652,6.768-7.279,12.552c0.373,5.784,3.398,10.125,3.398,10.125
					C668.082,374.912,692.052,353.045,698.096,354.916z"/>
				<path style="fill:#407BFF;" d="M618.541,375.128c0,0-0.933-6.344,10.262-3.918v7.09l2.612-6.344c0,0,6.531,0.194,8.583,2.522
					v7.367l3.918-5.594c0,0,7.652,6.768,7.278,12.552c-0.373,5.784-3.398,10.125-3.398,10.125
					C640.069,385.337,628.241,377.091,618.541,375.128z"/>
				<path style="opacity:0.3;" d="M618.541,375.128c0,0-0.933-6.344,10.262-3.918v7.09l2.612-6.344c0,0,6.531,0.194,8.583,2.522
					v7.367l3.918-5.594c0,0,7.652,6.768,7.278,12.552c-0.373,5.784-3.398,10.125-3.398,10.125
					C640.069,385.337,628.241,377.091,618.541,375.128z"/>
				<path style="fill:#407BFF;" d="M675.319,306.03c0.948-0.084,6.344,4.105,3.545,13.434l-5.224,3.253h4.665
					c0,0,0,1.971-2.799,3.277c-2.799,1.306-5.224,2.612-5.224,2.612s7.277-2.426,7.277-1.493c0,0.933-3.732,13.434-4.851,16.047
					c-1.12,2.612-9.38,12.91-12.179,12.164c-2.799-0.746-7.039-3.954-8.905-9.738c-1.866-5.784,2.985-16.486,2.985-16.486
					l8.583,2.305l-8.023-5.038C655.168,326.368,662.631,307.149,675.319,306.03z"/>
				<path style="opacity:0.3;" d="M675.319,306.03c0.948-0.084,6.344,4.105,3.545,13.434l-5.224,3.253h4.665
					c0,0,0,1.971-2.799,3.277c-2.799,1.306-5.224,2.612-5.224,2.612s7.277-2.426,7.277-1.493c0,0.933-3.732,13.434-4.851,16.047
					c-1.12,2.612-9.38,12.91-12.179,12.164c-2.799-0.746-7.039-3.954-8.905-9.738c-1.866-5.784,2.985-16.486,2.985-16.486
					l8.583,2.305l-8.023-5.038C655.168,326.368,662.631,307.149,675.319,306.03z"/>
				<path style="fill:#263238;" d="M654.739,415.066c0.05-25.885,3.479-51.738,10.216-76.732c1.892-7.018,4.045-13.962,6.444-20.824
					c0.16-0.457-0.565-0.653-0.723-0.199c-8.538,24.423-13.878,49.938-15.838,75.737c-0.556,7.326-0.835,14.671-0.849,22.018
					C653.988,415.549,654.738,415.55,654.739,415.066L654.739,415.066z"/>
				<path style="fill:#263238;" d="M698.096,354.541c-3.274,0.046-6.507,1.941-9.197,3.624c-3.954,2.474-7.6,5.47-10.954,8.703
					c-3.37,3.248-6.546,6.815-9.014,10.807c-3.049,4.933-5.116,10.725-6.612,16.302c-1.889,7.039-2.608,14.375-1.717,21.624
					c0.058,0.473,0.809,0.479,0.75,0c-0.771-6.276-0.346-12.617,1.038-18.78c1.332-5.931,3.408-11.928,6.32-17.276
					c2.13-3.911,5.063-7.381,8.163-10.555c3.278-3.356,6.865-6.451,10.746-9.093c2.977-2.027,6.73-4.553,10.477-4.606
					C698.578,355.284,698.58,354.534,698.096,354.541L698.096,354.541z"/>
				<path style="fill:#263238;" d="M651.998,421.483c-0.756-8.241-1.15-17.349-5.368-24.685c-1.964-3.415-4.534-6.456-7.217-9.323
					c-2.622-2.802-5.508-5.374-8.688-7.529c-3.66-2.481-7.723-4.363-12.085-5.179c-0.472-0.088-0.674,0.634-0.199,0.723
					c7.591,1.42,14.133,6.057,19.451,11.481c2.648,2.701,5.176,5.6,7.225,8.787c2.207,3.433,3.455,7.091,4.257,11.072
					c0.973,4.833,1.424,9.75,1.874,14.654C651.292,421.96,652.042,421.964,651.998,421.483L651.998,421.483z"/>
				<path style="opacity:0.1;fill:#FFFFFF;" d="M698.176,372.129c-11.17,9.815-23.417,15.662-27.426,20.603
					c1.111,1.579,4.094,3.492,8.142,3.327c4.048-0.165,9.624-5.664,9.624-5.664l-3.418-4.838l4.999,3.858
					C690.096,389.417,700.398,380.323,698.176,372.129z"/>
				<path style="fill:#263238;" d="M691.358,377.293c-0.203,0.33-1.485,1.03-1.965,1.354c-1.379,0.93-2.768,1.846-4.158,2.761
					c-2.391,1.574-4.793,3.13-7.187,4.699c-8.407,5.51-13.983,13.973-18.293,22.875c-2.885,5.959-5.301,12.133-7.837,18.245
					c-0.185,0.445,0.541,0.64,0.723,0.199c4.401-10.609,8.409-21.783,15.482-30.978c2.877-3.74,6.292-7.062,10.244-9.655
					c2.343-1.537,4.696-3.059,7.038-4.6c1.511-0.994,3.021-1.99,4.52-3.002c0.593-0.401,1.69-0.885,2.08-1.52
					C692.259,377.259,691.611,376.882,691.358,377.293L691.358,377.293z"/>
			</g>
			<path style="fill:#407BFF;" d="M641.364,415.297l14.454,0.486l14.454-0.486c0,0,5.205,23.549,2.255,29.621
				c-2.458,5.061-9.9,6.024-15.256,6.204v0.042c-0.448,0-0.936-0.002-1.453-0.008c-0.517,0.007-1.006,0.008-1.453,0.008v-0.042
				c-5.356-0.181-12.798-1.143-15.256-6.204C636.159,438.846,641.364,415.297,641.364,415.297z"/>
			<path style="fill:#263238;" d="M641.617,415.066c0,0.626,6.46,1.134,14.429,1.134s14.429-0.508,14.429-1.134
				c0-0.627-6.46-1.135-14.429-1.135S641.617,414.44,641.617,415.066z"/>
			<path style="opacity:0.3;fill:#FFFFFF;" d="M669.431,417.843c0,0,2.763,17.993,1.606,23.096c-1.675,7.39-14.45,8.589-14.992,7.66
				s4.625-6.035,4.537-11.49c-0.088-5.455-1.455-18.454-1.455-18.454L669.431,417.843z"/>
		</g>
		<path style="opacity:0.1;fill:#FFFFFF;" d="M675.663,305.934c-8.206,20.864-12.963,38.035-15.103,49.295
			c-2.808-0.768-7.135-3.875-8.971-9.7c-1.837-5.825,3.109-16.547,3.109-16.547l8.61,2.373l-8.03-5.116
			C655.279,326.239,662.906,306.975,675.663,305.934z"/>
	</g>
</g>
<g id="Character">
	<g>
		<g>
			<path style="fill:#263238;" d="M287.526,433.734h-63.516c-6.774,0-12.266-5.492-12.266-12.266v-49.945
				c0-6.774,5.492-12.266,12.266-12.266h63.516c6.774,0,12.266,5.491,12.266,12.266v49.945
				C299.791,428.242,294.3,433.734,287.526,433.734z"/>
			<path style="opacity:0.1;fill:#FFFFFF;enable-background:new    ;" d="M287.526,433.734h-63.516
				c-6.774,0-12.266-5.492-12.266-12.266v-49.945c0-6.774,5.492-12.266,12.266-12.266h63.516c6.774,0,12.266,5.491,12.266,12.266
				v49.945C299.791,428.242,294.3,433.734,287.526,433.734z"/>
			<polygon style="fill:#263238;" points="257.166,430.801 260.857,453.406 252.953,453.406 245.683,431.845 			"/>
			<polygon style="fill:#263238;" points="157.623,430.801 153.932,453.406 161.848,453.406 169.105,431.845 			"/>
			<polygon style="opacity:0.1;fill:#FFFFFF;enable-background:new    ;" points="257.166,430.801 260.857,453.406 252.953,453.406 
				245.683,431.845 			"/>
			<polygon style="opacity:0.1;fill:#FFFFFF;enable-background:new    ;" points="157.623,430.801 153.932,453.406 161.848,453.406 
				169.105,431.845 			"/>
			<polygon style="fill:#263238;" points="200.298,430.801 203.989,453.406 196.085,453.406 188.815,431.845 			"/>
			<polygon style="fill:#263238;" points="92.317,430.801 88.626,453.406 96.53,453.406 103.8,431.845 			"/>
			<path style="fill:#263238;" d="M86.016,383.788h177.86c5.031,0,9.109,4.078,9.109,9.109v34.511c0,5.031-4.078,9.109-9.109,9.109
				H86.016c-5.031,0-9.109-4.078-9.109-9.109v-34.511C76.907,387.867,80.985,383.788,86.016,383.788z"/>
			<path style="opacity:0.1;fill:#FFFFFF;enable-background:new    ;" d="M86.016,383.788h177.86c5.031,0,9.109,4.078,9.109,9.109
				v34.511c0,5.031-4.078,9.109-9.109,9.109H86.016c-5.031,0-9.109-4.078-9.109-9.109v-34.511
				C76.907,387.867,80.985,383.788,86.016,383.788z"/>
			<path style="opacity:0.2;fill:#FFFFFF;enable-background:new    ;" d="M154.491,383.788h109.385c5.031,0,9.109,4.078,9.109,9.109
				v34.511c0,5.031-4.078,9.109-9.109,9.109H154.491c-5.031,0-9.109-4.078-9.109-9.109v-34.511
				C145.382,387.867,149.46,383.788,154.491,383.788z"/>
			<path style="opacity:0.2;enable-background:new    ;" d="M240.867,384.608l25.985,51.462c0,0,3.548-1.274,5.239-4.722
				c1.691-3.449,1.563-13.123,1.563-13.123l-23.314-34.357L240.867,384.608z"/>
			<path style="opacity:0.2;fill:#FFFFFF;enable-background:new    ;" d="M287.526,433.734L287.526,433.734
				c6.769,0,12.259-5.484,12.266-12.253v-49.958c0-6.767-5.486-12.253-12.253-12.253c-0.004,0-0.008,0-0.012,0l0,0
				c-6.76-0.007-12.247,5.468-12.253,12.229c0,0.008,0,0.016,0,0.025v49.958C275.272,428.248,280.758,433.734,287.526,433.734z"/>
		</g>
		<g>
			<path style="fill:#263238;" d="M211.943,383.987H82.238L62.479,281.909c-1.901-9.804,4.505-19.292,14.309-21.193
				c1.133-0.22,2.284-0.33,3.438-0.331h92.87c8.662,0.007,16.106,6.149,17.759,14.652L211.943,383.987z"/>
			<g style="opacity:0.1;">
				<path style="fill:#FFFFFF;" d="M211.943,383.987H82.238L62.479,281.909c-1.901-9.804,4.505-19.292,14.309-21.193
					c1.133-0.22,2.284-0.33,3.438-0.331h92.87c8.662,0.007,16.106,6.149,17.759,14.652L211.943,383.987z"/>
			</g>
			<path style="opacity:0.2;fill:#FFFFFF;enable-background:new    ;" d="M211.98,383.776h-92.882L97.972,274.925
				c-1.655-8.485-9.114-14.592-17.759-14.54h92.907c8.64-0.038,16.09,6.063,17.759,14.54L211.98,383.776z"/>
		</g>
		<g>
			<g>
				<path style="fill:#FDBBB5;" d="M183.719,301.38c0,0,6.877,20.74,7.758,21.745c2.98,3.401,18.731,7.012,18.731,7.012l6.999-3.053
					l6.165,3.264l-2.89,3.417l-4.38-0.679c-2.132,0.855-4.336,1.52-6.587,1.985c-3.782,0.789-22.987-0.003-27.097-4.426
					c-4.11-4.423-10.447-27.552-10.447-27.552L183.719,301.38z"/>
				<path style="fill:#407BFF;" d="M176.183,292.65c0.678,4.171,8.776,16.697,6.12,25.946c-0.693,10.348,6.959,19.512,4.75,24.22
					c-3.766,4.184-28.07,8.555-48.645,10.078c-2.574-8.068-1.582-26.076-12.729-51.515c-2.586-5.907,2.724-14.587,14.612-19.057
					c5.3-1.77,10.971-2.14,16.458-1.074C162.586,282.384,174.953,285.194,176.183,292.65z"/>
				<path style="fill:#407BFF;" d="M168.472,284.71c0,0,7.902,1.038,11.796,8.53c2.95,5.676,6.535,13.877,6.535,13.877l-13.005,2.24
					L168.472,284.71z"/>
			</g>
			<g>
				<path style="fill:#263238;" d="M172.985,241.07c0,0,4.247-4.471-8.739-9.256c-12.987-4.785-25.826,1.035-30.596,18.84
					c-4.514,15.41-10.886,18.109-3.516,24.099c7.369,5.99,18.245,3.086,29.418,4.416s12.904,6.554,16.851-2.562
					c2.802-6.471,2.737-16.222,2.737-16.222S179.721,241.654,172.985,241.07z"/>
				<path style="fill:#FDBBB5;" d="M144.885,262.149c0,6.425-1.044,16.653-4.747,21.3c0,0,5.791,4.151,19.548,12.738
					c4.971-8.798-0.659-10.563-0.659-10.563c-4.461-2.311-3.181-5.456-2.05-9.942L144.885,262.149z"/>
				<path style="opacity:0.2;enable-background:new    ;" d="M156.976,275.683l-10.725-8.674c-0.425,1.293-0.372,2.695,0.149,3.952
					c1.504,4.076,5.521,7.418,9.435,9.692C156.155,278.932,156.503,277.453,156.976,275.683z"/>
				<path style="fill:#FDBBB5;" d="M143.766,249.921c-0.708,10.402-1.243,14.789,3.194,20.741c6.661,8.96,19.349,7.518,23.09-2.486
					c3.38-8.997,3.977-24.494-5.406-29.826C155.261,233.02,144.425,239.519,143.766,249.921z"/>
				<g>
					<path style="fill:#263238;" d="M157.073,255.245c-0.316,1.067-0.046,2.127,0.602,2.367c0.648,0.24,1.429-0.43,1.744-1.497
						c0.316-1.067,0.046-2.127-0.602-2.367C158.17,253.507,157.389,254.178,157.073,255.245z"/>
					<path style="fill:#263238;" d="M166.967,257.329c-0.304,1.035-0.026,2.068,0.62,2.307c0.646,0.239,1.416-0.405,1.72-1.44
						c0.304-1.035,0.026-2.068-0.62-2.307C168.041,255.649,167.271,256.294,166.967,257.329z"/>
					<path style="fill:#263238;" d="M156.367,249.585c0.122,0.058,0.263,0.066,0.392,0.009c2.02-0.885,3.57,0.209,3.587,0.222
						c0.229,0.163,0.538,0.108,0.687-0.132c0.148-0.24,0.081-0.569-0.15-0.737c-0.081-0.058-2.024-1.434-4.532-0.335
						c-0.25,0.11-0.361,0.418-0.249,0.69C156.157,249.432,156.253,249.531,156.367,249.585z"/>
					<path style="fill:#263238;" d="M171.988,253.49c0.112,0.001,0.221-0.044,0.302-0.138c0.169-0.194,0.157-0.517-0.025-0.723
						c-1.826-2.063-3.844-1.677-3.93-1.659c-0.241,0.049-0.387,0.315-0.326,0.593c0.06,0.278,0.304,0.462,0.545,0.414
						c0.079-0.016,1.649-0.289,3.1,1.351C171.749,253.435,171.87,253.489,171.988,253.49z"/>
					<path style="fill:#F48882;" d="M164.016,255.949c0,0,0.263,4.254,1.211,7.178c0.166,0.511-0.229,1.036-0.766,1.046
						c-1.382,0.026-2.675-0.88-2.675-0.88L164.016,255.949z"/>
					<path style="fill:#263238;" d="M158.429,253.661l2.465,0.252C160.893,253.913,159.058,255.18,158.429,253.661z"/>
					<path style="fill:#263238;" d="M168.445,255.831l2.465,0.252C170.909,256.083,169.074,257.349,168.445,255.831z"/>
					<path style="fill:#263238;" d="M158.545,265.816c-0.011,0-0.022-0.001-0.033-0.002c-3.331-0.439-3.425-3.577-3.425-3.608
						c-0.002-0.139,0.107-0.252,0.245-0.255c0.122-0.029,0.252,0.107,0.255,0.245c0.003,0.111,0.093,2.741,2.991,3.122
						c0.137,0.019,0.233,0.144,0.215,0.28C158.776,265.725,158.669,265.816,158.545,265.816z"/>
				</g>
				<path style="fill:#263238;" d="M168.236,239.084c-9.65,9.114-17.131,19.359-22.164,20.167
					c-5.033,0.808-8.78-10.884-3.635-16.812C147.581,236.512,158.679,231.441,168.236,239.084z"/>
				<path style="fill:#FDBBB5;" d="M139.622,257.145c0.466,2.442,1.927,4.382,3.522,5.426c2.398,1.57,5.221-2.183,5.238-5.126
					c0.015-2.65-2.022-5.114-4.758-5.484C140.928,251.595,139.09,254.352,139.622,257.145z"/>
				<path style="opacity:0.2;" d="M145.832,258.798c-0.021,0-0.044-0.003-0.066-0.009c-0.133-0.036-0.212-0.174-0.175-0.308
					c0.248-0.903,0.124-1.89-0.338-2.704c-0.462-0.813-1.245-1.425-2.148-1.675c-0.133-0.037-0.211-0.175-0.174-0.308
					c0.037-0.134,0.171-0.211,0.308-0.175c1.03,0.286,1.922,0.982,2.449,1.911c0.528,0.928,0.669,2.052,0.386,3.083
					C146.043,258.725,145.942,258.798,145.832,258.798z"/>
				<path style="fill:#263238;" d="M166.819,239.681c-0.743,3.928-2.793,7.489-5.816,10.104c0,0,6.35-1.628,9.544-6.027
					L166.819,239.681z"/>
			</g>
			<g>
				<path style="fill:#407BFF;" d="M337.061,410.931c-3.782-3.406-8.013-6.279-12.573-8.538c0,0,2.486-10.92,5.658-8.84
					c5.758,3.779,17.479,5.458,23.652,0.353c3.528-2.912,4.204,1.578,2.725,4.582c-2.357,4.782-3.26,4.603-7.241,7.142
					c-3.405,2.155-4.715,2.981-6.158,5.945C341.944,414.009,339.523,412.875,337.061,410.931z"/>
				<path style="fill:#263238;" d="M334.476,392.963l-8.699,12.585c-13.136-5.157-24.059-9.942-33.144-14.316
					c-42.253-20.368-45.26-32.112-51.151-32.746c-1.193,0.053-2.359,0.367-3.417,0.92c-13.832,5.878-57.973,37.804-80.778,31.068
					c-25.314-7.456-19.039-37.568-19.039-37.568c67.903-22.543,110.367-25.861,127.79-14.913
					C283.462,348.942,334.476,392.963,334.476,392.963z"/>
				<path style="opacity:0.2;enable-background:new    ;" d="M292.621,391.232c-42.253-20.368-45.26-32.112-51.151-32.746
					c-1.193,0.053-2.359,0.367-3.418,0.92l0.149-0.547c0,0,18.256-4.834,30.571-0.596
					C277.683,361.332,287.749,380.756,292.621,391.232z"/>
				<path style="fill:#407BFF;" d="M282.232,445.813c0.105-4.741-0.438-9.474-1.616-14.068c0,0,9.221-4.884,9.681-1.379
					c0.833,6.363,6.773,15.658,14.13,16.914c4.2,0.721,1.442,3.927-1.578,4.71c-4.809,1.243-5.232,0.497-9.445-0.771
					c-3.591-1.094-4.971-1.516-7.941-0.733C283.027,451.132,282.356,448.734,282.232,445.813z"/>
				<path style="fill:#263238;" d="M291.651,430.801l-11.185,5.269c0,0-27.477-40.774-31.379-51.536c0,0-18.753,0.373-44.067-0.41
					c-4.598-0.137-7.32,0-12.278-0.336c0,0,23.91-21.549,45.459-24.929c1.106-0.174,2.187-0.298,3.268-0.373
					c0,0,19.163-1.504,24.581,3.132C271.469,366.253,291.651,430.801,291.651,430.801z"/>
				<path style="opacity:0.1;enable-background:new    ;" d="M291.651,430.801l-11.185,5.269c0,0-27.477-40.774-31.379-51.536
					c0,0-18.753,0.373-44.067-0.41c-4.598-0.137-7.32,0-12.278-0.336c0,0,23.91-21.549,45.459-24.929
					c1.106-0.174,2.187-0.298,3.268-0.373c0,0,19.163-1.504,24.581,3.132C271.469,366.253,291.651,430.801,291.651,430.801z"/>
			</g>
			<path style="opacity:0.2;enable-background:new    ;" d="M238.214,358.859c-8.401,10.079-22.208,18.964-33.181,25.265
				c-4.598-0.137-7.32,0-12.278-0.336C192.742,383.788,216.652,362.239,238.214,358.859z"/>
			<g>
				<g>
					<g>
						<path style="fill:#FDBBB5;" d="M142.049,310.915c0,0,4.721,21.544,7.218,23.31c4.22,2.985,27.104,4.802,27.104,4.802
							l7.884-4.769c0.555-0.321,1.237-0.352,1.803-0.082l6.75,3.221l-0.457,0.585c-0.197,0.253-0.537,0.366-0.849,0.285l-0.999-0.26
							l1.219,0.779l-0.264,0.337c-0.262,0.335-0.684,0.525-1.116,0.501l-2.748-0.152l2.736,1.095
							c-0.441,0.564-1.154,0.878-1.88,0.826l-4.034-0.287c-2.471,1.138-5.036,2.072-7.666,2.79
							c-4.424,1.216-29.566,4.861-34.647,0.274c-5.081-4.587-12.966-26.4-12.966-26.4L142.049,310.915z"/>
					</g>
					<g>
						<g>
							<path style="fill:#263238;" d="M210.723,334.149l-17.342,3.638l-18.402,3.86c0.001,0.004,0.002,0.008,0.003,0.012
								c0.295,1.363,2.05,2.144,3.92,1.745l18.386-3.857l10.518-2.206c0.016-0.003,0.032-0.007,0.048-0.01
								c0.001,0,0.002,0,0.003-0.001l29.27-6.14c1.853-0.402,3.115-1.82,2.822-3.172L210.723,334.149z"/>
						</g>
						<path style="fill:#263238;" d="M237.632,330.939l-32.654,6.849c-0.564,0.115-1.095-0.16-1.185-0.613
							c-0.017-0.085-0.017-0.173-0.001-0.261l7.541-36.35c0.167-1.028,1.125-1.907,2.364-2.172l32.674-6.854
							c0.553-0.116,1.076,0.15,1.169,0.594c0.019,0.093,0.018,0.189-0.002,0.285l-7.541,36.35
							C239.823,329.792,238.869,330.669,237.632,330.939z"/>
						<path style="opacity:0.7;fill:#FFFFFF;enable-background:new    ;" d="M246.371,291.537l-32.674,6.854
							c-1.24,0.265-2.197,1.144-2.364,2.172l-7.256,34.98l-10.695,2.243l-18.402,3.86c0.001,0.004,0.002,0.008,0.003,0.012
							c0.295,1.363,2.05,2.144,3.92,1.745l18.386-3.857l10.518-2.206c0.016-0.003,0.032-0.007,0.048-0.01
							c0.001,0,0.002,0,0.003-0.001l29.27-6.14c0.588-0.128,1.105-0.365,1.543-0.662c0.706-0.415,1.207-1.05,1.327-1.762
							l7.541-36.35c0.021-0.096,0.022-0.192,0.002-0.285C247.447,291.687,246.924,291.422,246.371,291.537z"/>
						<path style="fill:#FFFFFF;" d="M230.467,313.383c-0.371,1.746-1.571,3.144-2.684,3.144c-1.113,0-1.703-1.396-1.354-3.143
							c0.349-1.746,1.571-3.122,2.684-3.122C230.226,310.262,230.838,311.593,230.467,313.383z"/>
						<g style="opacity:0.3;">
							
								<line style="fill:none;stroke:#000000;stroke-width:0;stroke-linecap:round;stroke-linejoin:round;" x1="203.477" y1="335.669" x2="204.076" y2="335.543"/>
							<path d="M211.333,300.563l-7.256,34.98l1.514-0.318l8.107-36.834C212.457,298.656,211.5,299.535,211.333,300.563z"/>
						</g>
					</g>
				</g>
				<path style="fill:#407BFF;" d="M126.767,292.79c0,0-3.916,3.628-2.937,11.072c0.98,7.444,4.114,16.064,4.114,16.064
					l18.128-8.228C146.071,311.699,138.128,282.697,126.767,292.79z"/>
			</g>
		</g>
		<g>
			<path style="fill:#263238;" d="M133.831,436.517H70.315c-6.774,0-12.266-5.492-12.266-12.266v-49.945
				c0-6.774,5.492-12.266,12.266-12.266h63.516c6.774,0,12.266,5.492,12.266,12.266v49.945
				C146.097,431.026,140.605,436.517,133.831,436.517z"/>
			<path style="opacity:0.1;fill:#FFFFFF;enable-background:new    ;" d="M133.831,436.517H70.315
				c-6.774,0-12.266-5.492-12.266-12.266v-49.945c0-6.774,5.492-12.266,12.266-12.266h63.516c6.774,0,12.266,5.492,12.266,12.266
				v49.945C146.097,431.026,140.605,436.517,133.831,436.517z"/>
			<path style="opacity:0.2;fill:#FFFFFF;enable-background:new    ;" d="M133.831,436.517L133.831,436.517
				c6.769,0,12.259-5.484,12.266-12.253v-49.958c0-6.767-5.486-12.253-12.253-12.253c-0.004,0-0.008,0-0.012,0l0,0
				c-6.767-0.007-12.259,5.474-12.266,12.241c0,0.004,0,0.008,0,0.012v49.958C121.572,431.034,127.062,436.517,133.831,436.517z"/>
		</g>
	</g>
</g>
</svg>
